<svg xmlns="http://www.w3.org/2000/svg" style="width:100%;height:100%;transform:rotateY(180deg);content-visibility:visible" width="288" height="401">
  <g fill-rule="nonzero" fill="none">
    <path d="m258.861 392.33-110.89-8.015-105.552 6.351 100.359 10.085 116.083-8.421z" opacity=".1" fill="#000"></path>
    <path d="m177.682 380.569 1.062 10.634h15.705l5.191-2.544 4.434-4.296-13.887-13.964-6.775-.231-5.73 10.401z" fill="#DFBCA4"></path>
    <path d="m178.744 391.203-.83-8.31 9.189 8.31 22.543-11.398 10.132 11.398h-41.034z" fill="#C3977A"></path>
    <path d="m120.541 370.167 6.958 8.818 2.358 13.991h-12.412l-5.772-5.016-6.132-7.392 4.74-8.21 10.26-2.191z" fill="#DFBCA4"></path>
    <path d="m106.151 379.926-12.515 13.05h36.222l-1.599-9.48-6.552 9.48-15.556-13.05z" fill="#C3977A"></path>
    <path d="m186.697 366.889-5.54.539-4.536 2.509 1.061 10.633 12.505-10.17-3.49-3.511zM125.73 368.487l-4.457-2.754-7.248.14-3.744 6.486 17.218 6.626-1.769-10.498z" fill="#8A6651"></path>
    <path d="m190.777 284.944-23.28 9.405-22.821 12.885 14.311 38.375 22.093-4.66 21.475-8.259-11.778-47.746z" fill="#BE8F00"></path>
    <path d="m158.987 345.609 5.066 14.438 19.729-12.065 18.773-15.291-43.568 12.918z" fill="#E4C728"></path>
    <path d="m164.053 360.047 38.501-27.356 7.6 27.102-22.985 2.254-23.116-2z" fill="#CCAC13"></path>
    <path d="m164.053 360.048 5.066 12.158 41.035-12.412-46.101.254z" fill="#E4C728"></path>
    <g fill="#BE8F00">
      <path d="m144.676 307.234-3.167 37.108-22.87-2.53-27.031-6.082 3.927-48.76 28.949 9.95 20.192 10.314z"></path>
    </g>
    <g>
      <path d="m91.609 335.731 25.403 14.708 23.231 9.608 1.266-15.704-49.9-8.612z" fill="#E4C728"></path>
      <path d="M91.609 335.731 89.076 360.3l27.927 1.281 23.239-1.534-48.633-24.316z" fill="#CCAC13"></path>
      <path d="m140.243 360.047-51.168.253 49.902 11.145 1.266-11.398z" fill="#E4C728"></path>
    </g>
    <g>
      <path d="m166.978 172.282 10.383 3.475 5.753 5.482 7.536-1.034 14.184 14.437-4.074 13.242-10.364 15.381-90.175 2.28-10.789-9.1-8.208-11.164 20.264-25.33 7.719-.997 3.896-3.973 11.616-4.97 17.93 12.896 24.329-10.625z" fill="#464646"></path>
      <path d="m190.776 284.943-46.101 22.29-49.139-20.264 4.685-61.425 7.647-8.694 7.678-4.351 60.032-3.293 7.094 3.756 7.724 10.302.38 61.679z" fill="#856300"></path>
      <path d="m190.65 180.205-.253 43.061-14.819-14.059 1.778-33.451 13.294 4.449zM113.103 174.981l2.443 37.52-15.326 13.043 1.267-45.593 11.616-4.97z" fill="#BE8F00"></path>
      <path d="M165.692 265.186h-40.52v-41.297h40.52v41.297zM190.534 245.685l-4.571-3.295-4.559 8.358 6.079-1.011 3.121 7.348-.07-11.4z" fill="#9E7700"></path>
      <path d="m163.926 270.252-6.585 5.318 1.013 5.32 8.612 6.334 3.293-13.426-6.333-3.546zM125.173 260.879l10.638-3.544-1.013-8.612 5.066-2.027-3.04-8.359-2.786 1.013.254 4.053-6.586-.506-2.533 6.333-.946 5.192.946 6.457z" fill="#CCAC13"></path>
      <path d="m145.942 273.039-6.586-1.773 1.52 7.092 4.813-.759.253-4.56z" fill="#9E7700"></path>
      <path d="m125.172 249.229-8.612 1.266 4.052 10.384h4.56v-11.65z" fill="#B58A00"></path>
    </g>
    <g fill="#DFBCA4">
      <path d="m224.592 211.486-19.759-16.844-14.437 28.622 14.565 4.94 13.317-4.648 6.314-12.07z"></path>
    </g>
    <g fill="#DFBCA4">
      <path d="m100.221 225.544-24.317 20.011-6.717-26.084 12.036-14.19 18.998 20.263z"></path>
    </g>
    <g>
      <path d="m65.012 203.255-49.14 7.345L.167 252.649l22.291 35.208 44.834 15.705 44.455-9.907-4.181-42.019-31.662-6.08-10.892-42.301z" fill="#E4C728"></path>
      <path d="m53.614 224.785-5.391 5.273-7.78 4.86 10.892 17.223 12.158-10.131-6.425-9.67-3.454-7.555z" fill="#C3977A"></path>
      <path d="m59.657 245.207-4.015-12.063-15.199 1.774 13.172-10.133 9.878 17.225-3.836 3.197z" fill="#8A6651"></path>
      <path d="m55.642 233.144-15.2 1.773-4.304 16.267 4.74 2.608 14.764-20.648z" fill="#DFBCA4"></path>
      <path d="m31.747 225.828-9.512-3.492-3.492 9.511 9.512 3.493 3.492-9.512z" fill="#464646"></path>
      <path d="m25.668 242.546-9.512-3.492-3.492 9.511 9.511 3.493 3.493-9.512z" fill="#802C00"></path>
      <path d="m31.747 261.291-9.512-3.493-3.492 9.511 9.512 3.493 3.492-9.511z" fill="#A84000"></path>
      <path d="m47.198 273.956-9.512-3.493-3.492 9.512 9.512 3.492 3.492-9.511z" fill="#CC4E00"></path>
      <path d="m64.422 280.288-9.512-3.493-3.492 9.511 9.512 3.493 3.492-9.511z" fill="#EC8500"></path>
      <path d="m83.927 280.794-9.512-3.493-3.492 9.511 9.51 3.493 3.494-9.511z" fill="#FF9B01"></path>
      <path d="m101.151 270.916-9.512-3.492-3.492 9.51 9.512 3.492 3.492-9.51z" fill="#F4D65D"></path>
      <path d="m55.641 233.144-4.307 18.998-4.385-6.935 8.692-12.063z" fill="#8A6651"></path>
      <path d="m46.949 245.207-6.071 8.586 10.456-1.651-4.385-6.935z" fill="#CCAC13"></path>
    </g>
    <g fill="#C3977A">
      <path d="m204.962 228.204 35.256-30.433 11.706-.666-1.982 13.783-19.795 25.447-25.185-8.131z"></path>
    </g>
    <g>
      <path d="m240.219 197.772 9.724 13.115 8.918-3.119-7.095-18.361-11.547 8.365z" fill="#8A6651"></path>
      <path d="m209.063 153.951 46.271 50.006 5.114-4.018 2.867-5.402-54.252-40.586z" fill="#464646"></path>
      <path d="m273.52 216.859 1.4 7.51 12.665 1.773-2.786-6.586-5.645-1.379-3.372-2.567-2.262 1.249z" fill="#BE8F00"></path>
      <path d="m275.427 203.597 3.727 14.58-13.606-3.182 4.467-6.643 5.412-4.755z" fill="#856300"></path>
      <path d="m249.359 197.499 16.189 17.496 9.879-11.398-12.112-9.061-13.956 2.963z" fill="#8F8F8F"></path>
      <path d="m245.785 205.281 3.573-7.781 11.204 1.325 2.752-4.288-15.546-11.63-7.55 14.865 5.567 7.509z" fill="#DFBCA4"></path>
      <path d="m266.804 184.192 11.094 15.955-2.471 3.45-27.659-20.69 8.225.555 10.811.73z" fill="#C3977A"></path>
    </g>
    <g>
      <path d="m79.158 92.897 54.462-13.203 56.718-16.646-.779-8.172-4.629-11.945-53.947 24.453-51.825 25.513z" fill="#CCAC13"></path>
      <path d="M184.931 42.93 127.36 57.197 69.207 75.81l2.481 7.471 7.47 9.617L184.931 42.93z" fill="#E4C728"></path>
      <path d="m120.999 45.13-5.256 17.458 23.03-6.543-17.774-10.915zM184.932 42.93l9.21 3.078 10.04 7.306-11.706 18.498-2.581-5.27.445-3.495-5.408-20.117z" fill="#755700"></path>
      <path d="m184.932 42.93-1.184-9.403 2.265-12.228 11.763 17.507 6.406 14.507-19.25-10.383z" fill="#CCAC13"></path>
      <path d="m186.012 21.299 30.932 19.252-12.762 12.762-18.17-32.014z" fill="#BE8F00"></path>
      <path d="m184.932 42.93 1.081-21.631.649-11.896-4.206 4.419-18.193 19.118.546 15.707 20.123-5.717z" fill="#856300"></path>
      <path d="m149.821 12.223-1.662 9.077 8.993 7.797 8.528 4.316 13.926-15.935L154.216.751l-4.395 11.472z" fill="#BE8F00"></path>
      <path d="M165.68 33.412 148.159 21.3l-5.471 13.657-3.914 21.087 26.035-7.398.871-15.234zM118.741 19.568l19.394 2.113 10.024-.381L154.215.751l-35.474 18.817z" fill="#CCAC13"></path>
      <path d="m148.16 21.299-29.418-1.73 6.232 14.056 13.8 22.42 9.386-34.746z" fill="#BE8F00"></path>
      <path d="m63.998 100.094 22.329 4.941-3.493-7.842-3.676-4.296-7.411 1.788-7.749 5.409z" fill="#755700"></path>
      <path d="m138.774 56.044-16.83-9.261-10.504-4.493-6.326-4.767 2.653-10.28 4.238-8.199 2.627-7.046 4.11 7.57 20.032 36.476z" fill="#CCAC13"></path>
      <path d="m105.115 37.523-9.69-3.077-9.67-7.63-2.049-10.057 28.3 2.286-6.891 18.478z" fill="#BE8F00"></path>
      <path d="m105.115 37.523-19.36-10.708-9.734 12.979 6.527 12.681 10.954 16.432 8.996-19.605 2.617-11.779zM60.362 78.441l-4.396 25.467 23.192-11.011-9.95-17.088-4.228-.229-4.618 2.861z" fill="#856300"></path>
      <path d="M76.021 39.793 67.245 49.81l-3.121 7.505 10.457 4.599 18.921 6.993-17.481-29.114z" fill="#BE8F00"></path>
      <path d="M76.022 39.793 45.088 50.177l19.037 7.138 11.897-17.522z" fill="#CCAC13"></path>
      <path d="M64.124 57.314 47.035 82.406l22.172-6.597 24.294-6.902-29.377-11.593z" fill="#CCAC13"></path>
      <path d="M105.115 37.523 93.502 68.907l13.16 16.606 9.082-22.926 6.2-15.803-16.829-9.261z" fill="#BE8F00"></path>
      <path d="m190.339 63.048 19.035 78.085-34.609 12.33-4.579 8.213-3.208 10.606-14.885 10.327-12.37 12.817-21.552-39.776-14.676-21.586-11.732-19.827-2.48-9.761-10.125-11.578 111.181-29.85z" fill="#DFBCA4"></path>
      <path d="m113.326 122.449-5.894-9.916-9.576 4.958 8.31 3.917 7.16 1.041z" fill="#8A6651"></path>
      <path d="m123.189 81.075 30.135 79.853 12.356-.058 1.299 11.412-27.256 23.144-18.856-31.939-2.125-6.787-3.48-2.706-11.767-19.931 18.193-10.807-5.974-11.324 9.949-5.84-12.755-22.256 10.281-2.761zM141.252 92.75l10.584-.069 12.114 16.44-2.319-19.377-6.715-9.829-13.664 12.835zM168.809 75.876l4.813 25.65 5.036-17.929 8.747-5.348-18.596-2.373z" fill="#C3977A"></path>
      <path d="m154.916 79.914-16.562 6.212 2.898 6.624 13.664-12.836zM168.809 75.875l17.054-4.692 1.542 7.066-18.596-2.374z" fill="#856300"></path>
      <path d="m160.746 127.349 13.413-9.091 14.379.969-11.502 8.609-16.29-.487z" fill="#755700"></path>
      <path d="m192.502 116.691-15.938 10.202-21.267.613 22.713 5.625 14.492-16.44z" fill="#B58A00"></path>
      <path d="m112.909 83.835 12.755 22.257-9.95 5.841-5.192-8.437-18.759 10.741-12.605-21.339 33.751-9.063z" fill="#856300"></path>
      <path d="m174.765 153.462-29.201 10.168 21.414 8.652 7.787-18.82zM121.581 129.358l-4.454 17.49-9.244-10.191 13.698-7.299zM135.215 142.141l-14.35 21.346-5.55-9.524 6.628-7.114 13.272-4.708z" fill="#8A6651"></path>
      <path d="m168.809 75.875-13.894 4.039 9.035 29.207 13.627-4.111-8.768-29.135z" fill="#E8C9B6"></path>
      <path d="m177.578 105.01-4.759 8.868-8.869-4.758 13.628-4.11z" fill="#8A6651"></path>
    </g>
    <g>
      <path d="m123.394 122.243 11.821 19.899-19.9 11.821-11.82-19.899 19.899-11.821zm-12.784 13.633 6.517 10.973 10.973-6.519-6.518-10.972-10.972 6.518z" fill="#755700"></path>
      <path d="m111.001 118.535-4.835 2.873 9.058 15.249 4.836-2.873-9.059-15.249z" fill="#B58A00"></path>
    </g>
    <g fill="#2B2B2B">
      <path d="M156.898 100.824a4.26 4.26 0 1 1-8.519.001 4.26 4.26 0 0 1 8.519-.001zM185.664 91.301a4.26 4.26 0 0 1-8.52 0 4.26 4.26 0 0 1 8.52 0z"></path>
    </g>
  </g>
</svg>